<svg id="Layer_1" data-name="Layer 1" xmlns="http://www.w3.org/2000/svg" viewBox="0 0 144 144"><defs><style>.cls-1,.cls-4{fill:#fff;}.cls-2{fill:#1a1a1a;}.cls-3{fill:#999;}.cls-4{stroke:#999;stroke-linecap:round;stroke-miterlimit:10;stroke-width:2px;}.cls-5{fill:#4d4d4d;}</style></defs><rect class="cls-1" x="49.5" y="18.5" width="74" height="74"/><path d="M123,19V92H50V19h73m1-1H49V93h75V18Z"/><rect class="cls-2" x="19.5" y="43.5" width="82" height="82"/><path class="cls-3" d="M101,44v81H20V44h81m1-1H19v83h83V43Z"/><polygon class="cls-2" points="102.5 42.5 20.38 42.5 49.18 18.5 123.5 18.5 123.5 92.85 102.5 124.35 102.5 42.5"/><path class="cls-3" d="M123,19V92.7l-20,30V42H21.76l27.6-23H123m1-1H49L19,43h83v83l22-33V18Z"/><line class="cls-4" x1="102" y1="43" x2="123" y2="19"/><polygon class="cls-5" points="21.77 42 101.54 42 121.63 19 49.37 19 21.77 42"/></svg>